# xmcd
#
# Track frame offsets:
#	150
#	11131
#	22876
#	35616
#	46427
#	56468
#	67572
#	78797
#	88323
#	99330
#	109817
#	119942
#	130363
#	143045
#	154040
#	168543
#	178131
#	191366
#	204131
#	213154
#	228158
#	243808
#	254738
#
# Disc length: 3574 seconds
#
# Revision: 1
# Processed by: cddbd v1.5.2PL0 Copyright (c) Steve Scherf et al.
# Submitted via: audiograbber 1.83.01
#
DISCID=340df417
DTITLE=mac wiseman - fire ball mail (1962) bluegrass favorites (1962)
DYEAR=2016
DGENRE=country
TTITLE0=Wabash cannonball 
TTITLE1=These hands 
TTITLE2=Waiting for the boys 
TTITLE3=You can't judge a book by it's cover 
TTITLE4=Fire ball mail 
TTITLE5=Crazy blues 
TTITLE6=Danger! Heartbreak ahead 
TTITLE7=I'm eatin' high on the hog 
TTITLE8=Let me borrow your heart just for tonight 
TTITLE9=Dreams of mother and home 
TTITLE10=my little home in tennessee
TTITLE11=Are you missing me 
TTITLE12=Sing little birdie 
TTITLE13=Just a strand from a yellow curl 
TTITLE14=When the snowflakes fall 
TTITLE15=Two more years, and I'll be free 
TTITLE16=Have a drink on me
TTITLE17=Free from the old chain gang 
TTITLE18=Cotton fields 
TTITLE19=I'll remember you, love, in my prayers 
TTITLE20=Ballad of the little box of pine 
TTITLE21=Bluegrass fiesta 
TTITLE22=Freight train 
EXTD=
EXTT0=
EXTT1=
EXTT2=
EXTT3=
EXTT4=
EXTT5=
EXTT6=
EXTT7=
EXTT8=
EXTT9=
EXTT10=
EXTT11=
EXTT12=
EXTT13=
EXTT14=
EXTT15=
EXTT16=
EXTT17=
EXTT18=
EXTT19=
EXTT20=
EXTT21=
EXTT22=
PLAYORDER=
